<svg width="154" height="154" viewBox="0 0 154 154" fill="none" xmlns="http://www.w3.org/2000/svg">
<g filter="url(#filter0_dd_514_2326)">
<rect x="4" y="4" width="144" height="144" rx="30" fill="#47654D"/>
</g>
<g filter="url(#filter1_d_514_2326)">
<path d="M39.9356 68.9047C37.3635 67.4433 34.6874 66.556 31.9075 66.2429V89.4944H26.8412V66.2429C24.0352 66.556 21.3462 67.4433 18.7741 68.9047L17.0204 64.9903C18.8391 63.8942 20.7876 63.0722 22.8661 62.5242C24.9706 61.9762 27.127 61.7022 29.3354 61.7022C31.5437 61.7022 33.7001 61.9762 35.8046 62.5242C37.9091 63.0722 39.8706 63.8942 41.6893 64.9903L39.9356 68.9047Z" fill="#F1F1ED"/>
<path d="M46.8889 71.6447C48.2919 69.4527 50.7601 68.3566 54.2935 68.3566V73.0148C53.8778 72.9365 53.5011 72.8973 53.1633 72.8973C51.2667 72.8973 49.7858 73.4584 48.7206 74.5805C47.6554 75.6766 47.1227 77.2684 47.1227 79.3561V89.4944H42.2513V68.5915H46.8889V71.6447Z" fill="#F1F1ED"/>
<path d="M66.1859 85.6192C68.4462 85.6192 70.3298 84.8624 71.8367 83.3488L74.4088 86.3629C73.4995 87.485 72.3303 88.3331 70.9014 88.9072C69.4724 89.4814 67.8616 89.7684 66.0689 89.7684C63.7826 89.7684 61.7691 89.3117 60.0284 88.3984C58.2877 87.485 56.9366 86.2194 55.9753 84.6014C55.04 82.9574 54.5724 81.1045 54.5724 79.043C54.5724 77.0075 55.027 75.1807 55.9364 73.5628C56.8717 71.9187 58.1448 70.64 59.7556 69.7267C61.3924 68.8133 63.237 68.3566 65.2895 68.3566C67.2381 68.3566 69.0048 68.7872 70.5896 69.6484C72.2004 70.4835 73.4735 71.6969 74.4088 73.2888C75.3441 74.8545 75.8118 76.6943 75.8118 78.8081L59.8725 81.9396C60.3661 83.14 61.1585 84.0534 62.2497 84.6797C63.3409 85.306 64.653 85.6192 66.1859 85.6192ZM65.2895 72.271C63.4968 72.271 62.0419 72.8582 60.9247 74.0325C59.8335 75.2068 59.2879 76.7856 59.2879 78.7689V78.8081L71.0573 76.5377C70.7195 75.259 70.031 74.2282 68.9918 73.4454C67.9785 72.6625 66.7444 72.271 65.2895 72.271Z" fill="#F1F1ED"/>
<path d="M86.3767 64.1291C84.3242 64.1291 83.298 65.2512 83.298 67.4955V68.7481H89.0267V72.6625H83.4149V89.4944H78.5434V67.4172C78.5434 65.199 79.193 63.4375 80.492 62.1327C81.7911 60.8279 83.6357 60.1755 86.026 60.1755C87.8706 60.1755 89.3255 60.5539 90.3907 61.3107L89.0267 64.9903C88.2473 64.4161 87.364 64.1291 86.3767 64.1291Z" fill="#F1F1ED"/>
<path d="M98.1671 64.1291C96.1146 64.1291 95.0883 65.2512 95.0883 67.4955V68.7481H100.817V72.6625H95.2052V89.4944H90.3338V67.4172C90.3338 65.199 90.9833 63.4375 92.2824 62.1327C93.5814 60.8279 95.4261 60.1755 97.8163 60.1755C99.661 60.1755 101.116 60.5539 102.181 61.3107L100.817 64.9903C100.038 64.4161 99.1544 64.1291 98.1671 64.1291Z" fill="#F1F1ED"/>
<path d="M109.756 89.7684C107.599 89.7684 105.911 89.1813 104.689 88.0069C103.494 86.8065 102.897 85.1233 102.897 82.9574V60.4495H107.768V82.6051C107.768 84.6927 108.742 85.7366 110.691 85.7366C111.341 85.7366 111.925 85.6061 112.445 85.3451L112.679 89.2595C111.769 89.5988 110.795 89.7684 109.756 89.7684Z" fill="#F1F1ED"/>
<path d="M134.188 68.5915V86.3237C134.188 93.6828 130.59 97.3624 123.393 97.3624C121.497 97.3624 119.678 97.1014 117.937 96.5795C116.223 96.0836 114.807 95.353 113.689 94.3874L115.872 90.7079C116.755 91.4647 117.833 92.0649 119.106 92.5085C120.38 92.9521 121.718 93.1739 123.12 93.1739C125.251 93.1739 126.81 92.652 127.797 91.6082C128.81 90.5904 129.317 89.0116 129.317 86.8718V85.8932C128.538 86.7543 127.589 87.4198 126.472 87.8895C125.355 88.3331 124.147 88.555 122.848 88.555C120.068 88.555 117.872 87.7851 116.262 86.2455C114.677 84.7058 113.884 82.3963 113.884 79.317V68.5915H118.756V78.6907C118.756 80.5435 119.171 81.9396 120.003 82.8791C120.86 83.7924 122.068 84.2491 123.627 84.2491C125.368 84.2491 126.745 83.7141 127.758 82.6442C128.797 81.5743 129.317 80.0216 129.317 77.9861V68.5915H134.188Z" fill="#F1F1ED"/>
</g>
<defs>
<filter id="filter0_dd_514_2326" x="0" y="0" width="154" height="154" filterUnits="userSpaceOnUse" color-interpolation-filters="sRGB">
<feFlood flood-opacity="0" result="BackgroundImageFix"/>
<feColorMatrix in="SourceAlpha" type="matrix" values="0 0 0 0 0 0 0 0 0 0 0 0 0 0 0 0 0 0 127 0" result="hardAlpha"/>
<feOffset dx="2"/>
<feGaussianBlur stdDeviation="2"/>
<feComposite in2="hardAlpha" operator="out"/>
<feColorMatrix type="matrix" values="0 0 0 0 0 0 0 0 0 0 0 0 0 0 0 0 0 0 0.25 0"/>
<feBlend mode="normal" in2="BackgroundImageFix" result="effect1_dropShadow_514_2326"/>
<feColorMatrix in="SourceAlpha" type="matrix" values="0 0 0 0 0 0 0 0 0 0 0 0 0 0 0 0 0 0 127 0" result="hardAlpha"/>
<feOffset dy="2"/>
<feGaussianBlur stdDeviation="2"/>
<feComposite in2="hardAlpha" operator="out"/>
<feColorMatrix type="matrix" values="0 0 0 0 0 0 0 0 0 0 0 0 0 0 0 0 0 0 0.25 0"/>
<feBlend mode="normal" in2="effect1_dropShadow_514_2326" result="effect2_dropShadow_514_2326"/>
<feBlend mode="normal" in="SourceGraphic" in2="effect2_dropShadow_514_2326" result="shape"/>
</filter>
<filter id="filter1_d_514_2326" x="17.0204" y="60.1755" width="127.168" height="47.1868" filterUnits="userSpaceOnUse" color-interpolation-filters="sRGB">
<feFlood flood-opacity="0" result="BackgroundImageFix"/>
<feColorMatrix in="SourceAlpha" type="matrix" values="0 0 0 0 0 0 0 0 0 0 0 0 0 0 0 0 0 0 127 0" result="hardAlpha"/>
<feOffset dx="6" dy="6"/>
<feGaussianBlur stdDeviation="2"/>
<feComposite in2="hardAlpha" operator="out"/>
<feColorMatrix type="matrix" values="0 0 0 0 0 0 0 0 0 0 0 0 0 0 0 0 0 0 0.25 0"/>
<feBlend mode="normal" in2="BackgroundImageFix" result="effect1_dropShadow_514_2326"/>
<feBlend mode="normal" in="SourceGraphic" in2="effect1_dropShadow_514_2326" result="shape"/>
</filter>
</defs>
</svg>
