<svg width="144" height="144" viewBox="0 0 144 144" fill="none" xmlns="http://www.w3.org/2000/svg">
<path d="M124 62.224C121.434 79.8276 113.799 96.8316 103.904 110.756C94.3972 124.133 83.0148 134.376 72.4476 139.612C62.5084 135.09 51.1208 125.502 41.3352 112.623C31.1301 99.1924 22.9456 82.5416 20.0007 65.1184C20.0781 47.5592 26.38 34.3905 35.7501 25.5818C45.228 16.6717 58.0848 12 71.474 12C85.0312 12 98.1852 16.0393 107.878 24.25C117.423 32.3347 123.93 44.7236 124 62.224Z" fill="#D8E6D7" stroke="#4B6A51" stroke-width="1.11111"/>
<path d="M90.0608 61.7672C90.0608 71.7992 81.9612 79.9068 72 79.9068C62.0388 79.9068 53.9396 71.7992 53.9396 61.7672C53.9396 51.7356 62.0388 43.628 72 43.628C81.9612 43.628 90.0608 51.7356 90.0608 61.7672Z" fill="#FAF9F5" stroke="#4B6A51" stroke-width="1.11111"/>
</svg>
