<svg width="14" height="14" viewBox="0 0 14 14" fill="none" xmlns="http://www.w3.org/2000/svg">
<path d="M7.25571 1C8.87124 1.00024 10.2098 2.33782 10.2098 4.02344C10.2096 5.70883 8.87109 7.04566 7.25571 7.0459C5.64013 7.0459 4.30087 5.70898 4.30063 4.02344C4.30063 2.33767 5.63998 1 7.25571 1Z" stroke="#4B6A51" stroke-width="2"/>
<mask id="mask0_338_699" style="mask-type:alpha" maskUnits="userSpaceOnUse" x="0" y="7" width="14" height="7">
<rect x="1.59229" y="8" width="11" height="5" fill="#D9D9D9" stroke="#1A1C1A" stroke-width="2"/>
</mask>
<g mask="url(#mask0_338_699)">
<path d="M7.25146 9.0769C9.24771 9.0769 10.6278 9.26079 11.4878 9.68042C11.8915 9.87746 12.1477 10.1113 12.311 10.3806C12.4763 10.6532 12.5923 11.0374 12.5923 11.6052C12.5922 12.772 12.0994 14.2262 11.1528 15.3816C10.2222 16.5175 8.9043 17.3074 7.25146 17.3074C5.58911 17.3073 4.18254 16.5081 3.16846 15.3552C2.13947 14.1853 1.59244 12.7374 1.59229 11.6052C1.59229 11.0606 1.71756 10.689 1.89893 10.4187C2.08284 10.1447 2.37533 9.89918 2.83057 9.69214C3.78387 9.25875 5.26105 9.07691 7.25146 9.0769Z" stroke="#4B6A51" stroke-width="2"/>
</g>
</svg>
