<svg width="40" height="40" viewBox="0 0 36 36" xmlns="http://www.w3.org/2000/svg">
  <path 
    d="M30.9999 15.556C30.3585 19.9569 28.4497 24.2079 25.9759 27.6889C23.5993 31.0332 20.7537 33.594 18.1119 34.9029C15.6271 33.7725 12.7802 31.3755 10.3338 28.1558C7.78253 24.7981 5.73641 20.6354 5.00018 16.2796C5.01953 11.8898 6.59501 8.59762 8.93752 6.39544C11.307 4.16792 14.5212 3 17.8685 3C21.2578 3 24.5463 4.00982 26.9696 6.0625C29.3557 8.08367 30.9825 11.1809 30.9999 15.556Z" 
    fill="#D8E6D7" 
    stroke="#4B6A51" 
    strokeWidth="2"
  />
  <path 
    d="M22.5152 15.4418C22.5152 17.9498 20.4903 19.9767 18 19.9767C15.5097 19.9767 13.4849 17.9498 13.4849 15.4418C13.4849 12.9339 15.5097 10.907 18 10.907C20.4903 10.907 22.5152 12.9339 22.5152 15.4418Z" 
    fill="#FAF9F5" 
    stroke="#4B6A51" 
    strokeWidth="2"
  />
</svg>